<svg xmlns="http://www.w3.org/2000/svg" width="512" height="512" viewBox="0 0 512 512">
  <rect width="512" height="512" rx="112" fill="#123b2f"/>
  <circle cx="406" cy="106" r="52" fill="#2d765e" opacity=".65"/>
  <path d="M94 394c60-77 125-116 194-116 54 0 99 22 136 65v75H94z" fill="#194d3d"/>
  <rect x="112" y="104" width="288" height="304" rx="64" fill="#f3f7f4"/>
  <path d="M163 322V190c0-22 13-36 34-36 17 0 29 9 38 27l21 43 21-43c9-18 22-27 39-27 21 0 34 14 34 36v132h-52v-87l-18 36c-5 10-13 15-24 15s-19-5-24-15l-18-36v87z" fill="#176c52"/>
  <path d="M162 353h188" stroke="#b6d5c7" stroke-width="18" stroke-linecap="round"/>
</svg>
